<mxfile host="app.diagrams.net" modified="2020-09-12T00:09:05.130Z" agent="5.0 (Macintosh)" etag="tRnSXMUyFETB1Z7aw7BM" version="13.6.10" type="github">
  <diagram id="C5RBs43oDa-KdzZeNtuy" name="Page-1">
    <mxGraphModel dx="1143" dy="697" grid="1" gridSize="10" guides="1" tooltips="1" connect="1" arrows="1" fold="1" page="1" pageScale="1" pageWidth="1100" pageHeight="850" math="0" shadow="0">
      <root>
        <mxCell id="WIyWlLk6GJQsqaUBKTNV-0" />
        <mxCell id="WIyWlLk6GJQsqaUBKTNV-1" parent="WIyWlLk6GJQsqaUBKTNV-0" />
        <mxCell id="WIyWlLk6GJQsqaUBKTNV-3" value="SRA_05_Orders/OPP_ORDR_IOS_INFO_BPDM_OCVS" style="rounded=1;whiteSpace=wrap;html=1;fontSize=12;glass=0;strokeWidth=1;shadow=0;" parent="WIyWlLk6GJQsqaUBKTNV-1" vertex="1">
          <mxGeometry x="360" y="30" width="330" height="50" as="geometry" />
        </mxCell>
        <mxCell id="Gco7PHf1AeYlD4nsF1-D-0" value="&lt;div&gt;SRA&lt;br&gt;&lt;/div&gt;&lt;div&gt;SRA.OPP_ORDR_STG_BPDM&lt;/div&gt;&lt;div&gt;SRA.RHEAL_OCVS_ORDR_IOS_INFO&lt;br&gt;&lt;/div&gt;&lt;div&gt;SRA.OPP_INFO_ENABLED_OCVS SRA.OPP_ORDR_IOS_INFO&lt;br&gt;&lt;/div&gt;" style="strokeWidth=2;html=1;shape=mxgraph.flowchart.database;whiteSpace=wrap;" vertex="1" parent="WIyWlLk6GJQsqaUBKTNV-1">
          <mxGeometry x="110" y="110" width="230" height="130" as="geometry" />
        </mxCell>
      </root>
    </mxGraphModel>
  </diagram>
</mxfile>
